<svg width="512" height="512" viewBox="0 0 512 512" fill="none" xmlns="http://www.w3.org/2000/svg">
  <style>
    .fill {
      fill: black;
    }

    .stroke {
      stroke: black;
    }

    @media (prefers-color-scheme: dark) {
      .fill {
        fill: white;
      }

      .stroke {
        stroke: white;
      }
    }
  </style>
<path d="M79 395.5C79 376.998 93.9985 362 112.5 362H406C408.209 362 410 363.791 410 366V445C410 447.209 408.209 449 406 449H112.5C93.9985 449 79 434.002 79 415.5V395.5Z" class="stroke" stroke-width="24" stroke-linejoin="round"/>
<path d="M399.764 362H429.786C432.114 362 434 360.335 434 358V52.3675C434 38.3574 422.681 27 408.718 27H104.282C90.3191 27 79 38.3574 79 52.3675V398" class="stroke" stroke-width="24" stroke-linejoin="round"/>
<rect x="108" y="392" width="302" height="28" rx="12" class="fill"/>
<path d="M130 412C130 408.686 132.686 406 136 406H186C189.314 406 192 408.686 192 412V494.55C192 500.259 184.78 502.742 181.269 498.24L165.731 478.317C163.329 475.237 158.671 475.237 156.269 478.317L140.731 498.24C137.22 502.742 130 500.259 130 494.55V412Z" class="fill"/>
<mask id="path-5-inside-1_1_2" fill="white">
<path fill-rule="evenodd" clip-rule="evenodd" d="M174.074 236.886C147.112 229.038 127.409 204.144 127.409 174.649C127.409 138.854 156.427 109.837 192.221 109.837C199.806 109.837 207.086 111.139 213.851 113.533C223.143 99.5839 239.015 90.3929 257.034 90.3929C275.052 90.3929 290.924 99.5839 300.216 113.533C306.981 111.139 314.261 109.837 321.846 109.837C357.641 109.837 386.658 138.854 386.658 174.649C386.658 204.144 366.955 229.038 339.993 236.886V306.866H174.074V236.886Z"/>
</mask>
<path d="M174.074 236.886H198.074C198.074 226.215 191.028 216.825 180.782 213.842L174.074 236.886ZM213.851 113.533L205.843 136.158C216.204 139.825 227.731 135.986 233.825 126.839L213.851 113.533ZM300.216 113.533L280.242 126.839C286.336 135.986 297.863 139.825 308.224 136.158L300.216 113.533ZM339.993 236.886L333.285 213.842C323.039 216.825 315.993 226.215 315.993 236.886H339.993ZM339.993 306.866V330.866C353.248 330.866 363.993 320.121 363.993 306.866H339.993ZM174.074 306.866H150.074C150.074 320.121 160.819 330.866 174.074 330.866V306.866ZM180.782 213.842C163.789 208.896 151.409 193.187 151.409 174.649H103.409C103.409 215.101 130.435 249.179 167.366 259.93L180.782 213.842ZM151.409 174.649C151.409 152.109 169.681 133.837 192.221 133.837V85.8365C143.172 85.8365 103.409 125.599 103.409 174.649H151.409ZM192.221 133.837C197.04 133.837 201.615 134.662 205.843 136.158L221.858 90.9086C212.558 87.6171 202.572 85.8365 192.221 85.8365V133.837ZM233.825 126.839C238.856 119.286 247.379 114.393 257.034 114.393V66.3929C230.652 66.3929 207.43 79.8818 193.877 100.228L233.825 126.839ZM257.034 114.393C266.689 114.393 275.211 119.286 280.242 126.839L320.19 100.228C306.637 79.8818 283.415 66.3929 257.034 66.3929V114.393ZM308.224 136.158C312.452 134.662 317.027 133.837 321.846 133.837V85.8365C311.495 85.8365 301.509 87.6171 292.209 90.9086L308.224 136.158ZM321.846 133.837C344.386 133.837 362.658 152.109 362.658 174.649H410.658C410.658 125.599 370.895 85.8365 321.846 85.8365V133.837ZM362.658 174.649C362.658 193.187 350.279 208.896 333.285 213.842L346.701 259.93C383.632 249.179 410.658 215.101 410.658 174.649H362.658ZM315.993 236.886V306.866H363.993V236.886H315.993ZM339.993 282.866H174.074V330.866H339.993V282.866ZM198.074 306.866V236.886H150.074V306.866H198.074Z" class="fill" mask="url(#path-5-inside-1_1_2)"/>
</svg>
